<svg xmlns="http://www.w3.org/2000/svg" xmlns:xlink="http://www.w3.org/1999/xlink" width="110" height="32" viewBox="0 0 110 32">
  <defs>
    <clipPath id="clip-favicon">
      <rect width="110" height="32"/>
    </clipPath>
  </defs>
  <g id="favicon" clip-path="url(#clip-favicon)">
    <path id="패스_3" data-name="패스 3" d="M-2567.313-2568.687A15.9,15.9,0,0,1-2572-2580a15.9,15.9,0,0,1,4.687-11.314A15.9,15.9,0,0,1-2556-2596a15.9,15.9,0,0,1,11.314,4.686A15.9,15.9,0,0,1-2540-2580a15.9,15.9,0,0,1-4.686,11.313A15.9,15.9,0,0,1-2556-2564,15.9,15.9,0,0,1-2567.313-2568.687ZM-2566-2580a10.011,10.011,0,0,0,10,10,10.011,10.011,0,0,0,10-10,10.011,10.011,0,0,0-10-10A10.011,10.011,0,0,0-2566-2580Zm-47,16,14.625-26H-2613v-6h36v6h-14.625l14.625,26Zm1.71-1h32.581l-14.063-25h-4.455Zm-38.71-15a16,16,0,0,1,16-16,16,16,0,0,1,16,16,16,16,0,0,1-16,16A16,16,0,0,1-2650-2580Zm5.393-10.607A14.9,14.9,0,0,0-2649-2580a14.9,14.9,0,0,0,4.393,10.606A14.9,14.9,0,0,0-2634-2565a14.9,14.9,0,0,0,10.607-4.393A14.9,14.9,0,0,0-2619-2580a14.907,14.907,0,0,0-4.393-10.607A14.906,14.906,0,0,0-2634-2595,14.906,14.906,0,0,0-2644.607-2590.607Z" transform="translate(2650 2596)" fill="#f8a4a4"/>
  </g>
</svg>
