<svg width="16" height="16" viewBox="0 0 16 16" fill="none" xmlns="http://www.w3.org/2000/svg">
<g clip-path="url(#clip0_222_36)">
<path fill-rule="evenodd" clip-rule="evenodd" d="M0.195986 6.70999H2.82799C2.82799 6.73799 2.81399 6.80799 2.78599 6.91999C2.76732 7.02265 2.74399 7.14865 2.71599 7.29799C2.68799 7.44732 2.65999 7.61065 2.63199 7.78799C2.61332 7.96532 2.60399 8.12865 2.60399 8.27799C2.60399 8.37132 2.61332 8.46932 2.63199 8.57199C2.65065 8.67465 2.68332 8.77265 2.72999 8.86599C2.77665 8.94999 2.84199 9.02465 2.92599 9.08999C3.01932 9.14599 3.13132 9.17399 3.26199 9.17399C3.50465 9.17399 3.69599 9.07599 3.83599 8.87999C3.98532 8.67465 4.11599 8.30599 4.22799 7.77399L5.64199 1.10999H8.67999L8.03946 4.10999H9.45198L10.404 7.62399L12.504 4.10999H14.016L12.0793 7.10999H14.928L13.276 14.824H16.118L15.88 16H10L11.7971 7.54713L10.446 9.63999L9.73198 13H6.69398L7.46398 9.40199L7.13136 8.11901C7.01434 8.41216 6.86321 8.66582 6.67799 8.87999C6.37932 9.21599 6.03399 9.47732 5.64199 9.66399C5.25932 9.85065 4.84865 9.97199 4.40999 10.028C3.97132 10.0933 3.55132 10.126 3.14999 10.126C2.68332 10.126 2.28199 10.0933 1.94599 10.028C1.60999 9.97199 1.31132 9.88799 1.04999 9.77599C0.797986 9.66399 0.569319 9.52865 0.363986 9.36999C0.158653 9.20199 -0.0466808 9.01999 -0.252014 8.82399L0.195986 6.70999Z" fill="#BC2649"/>
</g>
<defs>
<clipPath id="clip0_222_36">
<rect width="16" height="16" fill="white"/>
</clipPath>
</defs>
</svg>
